#!OML:ASF G:\JayActor3\Patient Classification 1\Patient 1\Session 6\male.ASF
:FULLY-SPECIFIED
:DEGREES
1332
root -11.5016 16.3034 5.91447 -6.35609 -41.9891 -347.851
lowerback 4.24051 -2.4006 -4.32596
upperback 3.63359 -3.35443 -2.78451
thorax 1.44757 -1.75477 -0.350297
lowerneck 7.94645 -3.59022 -0.236215
upperneck -7.9727 -4.40468 4.99671
head -3.91365 -2.41826 1.97249
rclavicle 1.55549e-014 1.3418e-014
rhumerus -38.6435 17.2743 -99.869
rradius 65.7125
rwrist 12.9097
rhand -52.8035 11.3971
rfingers 7.12502
rthumb -25.2775 -16.9482
lclavicle 1.55549e-014 1.3418e-014
lhumerus -28.3761 -13.1802 91.1827
lradius 62.9663
lwrist 4.86477
lhand -38.4804 -3.16597
lfingers 7.12502
lthumb -11.5026 26.4984
rfemur -34.2471 -6.84922 29.3268
rtibia 30.3525
rfoot -13.9359 -24.2119
rtoes 8.60548
lfemur 8.02651 20.8333 -20.7237
ltibia 39.5862
lfoot 8.10535 2.21179
ltoes -31.1855
1333
root -11.6474 16.3077 6.03879 -6.3865 -42.4851 -348.244
lowerback 4.37806 -2.40585 -3.958
upperback 3.58667 -3.36044 -2.68182
thorax 1.30601 -1.74888 -0.439703
lowerneck 7.90134 -3.59548 -0.209548
upperneck -7.85834 -4.40852 5.05008
head -3.86358 -2.42179 1.98095
rclavicle -9.53918e-014 1.42131e-014
rhumerus -38.8014 17.3392 -99.9564
rradius 65.8078
rwrist 12.907
rhand -52.738 11.3445
rfingers 7.12502
rthumb -25.2148 -17.0097
lclavicle -9.53918e-014 1.42131e-014
lhumerus -28.7957 -12.8958 91.2914
lradius 62.5578
lwrist 4.83571
lhand -38.5856 -3.13826
lfingers 7.12502
lthumb -11.6041 26.5205
rfemur -33.2593 -6.56428 29.7271
rtibia 30.5832
rfoot -14.3764 -23.9234
rtoes 9.14187
lfemur 6.6258 20.5308 -19.8855
ltibia 42.9232
lfoot 10.8767 1.50443
ltoes -28.4973
1334
root -11.7898 16.3098 6.15964 -6.31584 -43.0157 -348.763
lowerback 4.52859 -2.40262 -3.49125
upperback 3.54812 -3.35061 -2.55565
thorax 1.16123 -1.73394 -0.560108
lowerneck 7.8837 -3.61149 -0.179692
upperneck -7.80329 -4.42347 5.11383
head -3.83959 -2.43242 1.99568
rclavicle -3.7297e-014 1.73937e-014
rhumerus -38.9229 17.4104 -100.023
rradius 65.9313
rwrist 12.9029
rhand -52.6737 11.2912
rfingers 7.12502
rthumb -25.1532 -17.0716
lclavicle -3.7297e-014 1.73937e-014
lhumerus -29.1858 -12.6381 91.3917
lradius 62.1862
lwrist 4.80318
lhand -38.6584 -3.0711
lfingers 7.12502
lthumb -11.6742 26.5837
rfemur -32.289 -6.28748 30.2409
rtibia 30.7862
rfoot -14.7792 -23.6443
rtoes 9.684
lfemur 5.11221 20.0936 -19.002
ltibia 46.2242
lfoot 13.7939 0.749777
ltoes -25.0175
1335
root -11.928 16.3092 6.2777 -6.14818 -43.581 -349.398
lowerback 4.68279 -2.39075 -2.92812
upperback 3.52299 -3.32351 -2.40819
thorax 1.02409 -1.70964 -0.71347
lowerneck 7.89323 -3.63689 -0.146081
upperneck -7.80778 -4.4477 5.18532
head -3.84172 -2.44921 2.01563
rclavicle -9.70318e-014 -1.23246e-014
rhumerus -38.9961 17.4901 -100.062
rradius 66.0791
rwrist 12.9013
rhand -52.6081 11.2353
rfingers 7.12502
rthumb -25.0903 -17.1363
lclavicle -9.70318e-014 -1.23246e-014
lhumerus -29.534 -12.405 91.4891
lradius 61.849
lwrist 4.76245
lhand -38.7127 -2.93371
lfingers 7.12502
lthumb -11.7266 26.7181
rfemur -31.3492 -6.04256 30.8625
rtibia 30.9796
rfoot -15.1579 -23.3626
rtoes 10.1754
lfemur 3.51077 19.5472 -18.0776
ltibia 49.4378
lfoot 16.6029 -0.0393362
ltoes -21.147
1336
root -12.0622 16.3057 6.39283 -5.89098 -44.1918 -350.132
lowerback 4.82865 -2.3659 -2.29736
upperback 3.51682 -3.2734 -2.23635
thorax 0.909396 -1.67386 -0.881977
lowerneck 7.92039 -3.66918 -0.118104
upperneck -7.86833 -4.47905 5.26438
head -3.86671 -2.47072 2.04191
rclavicle 2.17669e-014 2.88238e-014
rhumerus -39.0052 17.5863 -100.059
rradius 66.2429
rwrist 12.9229
rhand -52.5454 11.1804
rfingers 7.12502
rthumb -25.0302 -17.1996
lclavicle 2.17669e-014 2.88238e-014
lhumerus -29.8233 -12.1878 91.5874
lradius 61.5403
lwrist 4.70404
lhand -38.7418 -2.7133
lfingers 7.12502
lthumb -11.7547 26.9369
rfemur -30.449 -5.79404 31.5698
rtibia 31.1767
rfoot -15.5695 -23.0862
rtoes 10.6578
lfemur 1.84705 18.9294 -17.1195
ltibia 52.5212
lfoot 18.9904 -0.84421
ltoes -17.1601
1337
root -12.1924 16.2995 6.50534 -5.56866 -44.8429 -350.928
lowerback 4.96564 -2.32842 -1.62812
upperback 3.52987 -3.2021 -2.04704
thorax 0.819663 -1.62783 -1.05672
lowerneck 7.95427 -3.70409 -0.0968194
upperneck -7.96719 -4.5128 5.34849
head -3.90634 -2.49414 2.07277
rclavicle -3.15571e-015 5.96354e-015
rhumerus -38.9431 17.7041 -100.01
rradius 66.4094
rwrist 12.9833
rhand -52.4956 11.1288
rfingers 7.12502
rthumb -24.9825 -17.2578
lclavicle -3.15571e-015 5.96354e-015
lhumerus -30.0535 -11.9818 91.6859
lradius 61.2587
lwrist 4.61632
lhand -38.6995 -2.44745
lfingers 7.12502
lthumb -11.7139 27.205
rfemur -29.5896 -5.53866 32.3265
rtibia 31.3863
rfoot -15.9873 -22.8245
rtoes 11.018
lfemur 0.146938 18.2726 -16.1624
ltibia 55.4392
lfoot 20.6485 -1.72496
ltoes -13.9314
1338
root -12.3187 16.2909 6.6154 -5.21781 -45.5291 -351.742
lowerback 5.10246 -2.28065 -0.963308
upperback 3.56008 -3.11512 -1.84807
thorax 0.750356 -1.57472 -1.22124
lowerneck 7.99545 -3.73692 -0.0772482
upperneck -8.09321 -4.54267 5.43395
head -3.9572 -2.51623 2.10545
rclavicle -2.85256e-014 -2.18663e-015
rhumerus -38.8105 17.8483 -99.9209
rradius 66.5661
rwrist 13.1043
rhand -52.4591 11.0863
rfingers 7.12502
rthumb -24.9475 -17.3053
lclavicle -2.85256e-014 -2.18663e-015
lhumerus -30.2322 -11.7732 91.78
lradius 61.002
lwrist 4.49879
lhand -38.5641 -2.16449
lfingers 7.12502
lthumb -11.5833 27.4954
rfemur -28.7607 -5.26513 33.0917
rtibia 31.6139
rfoot -16.4146 -22.5791
rtoes 11.1583
lfemur -1.55544 17.6307 -15.2151
ltibia 58.1648
lfoot 21.3892 -2.65018
ltoes -11.8081
1339
root -12.4422 16.2803 6.72342 -4.88217 -46.2549 -352.528
lowerback 5.24347 -2.22233 -0.346188
upperback 3.60935 -3.01441 -1.64715
thorax 0.703062 -1.51598 -1.35904
lowerneck 8.03771 -3.76171 -0.0568994
upperneck -8.232 -4.56145 5.51441
head -4.01342 -2.53292 2.1363
rclavicle 3.05134e-014 4.37326e-015
rhumerus -38.6067 18.0256 -99.7945
rradius 66.702
rwrist 13.2955
rhand -52.4245 11.0568
rfingers 7.12502
rthumb -24.9144 -17.3393
lclavicle 3.05134e-014 4.37326e-015
lhumerus -30.3652 -11.558 91.8692
lradius 60.7722
lwrist 4.37244
lhand -38.3621 -1.81369
lfingers 7.12502
lthumb -11.3885 27.857
rfemur -27.9472 -4.96153 33.8282
rtibia 31.8675
rfoot -16.8279 -22.3607
rtoes 11.0071
lfemur -3.23218 16.9992 -14.3142
ltibia 60.6768
lfoot 21.2126 -3.4794
ltoes -10.7161
1340
root -12.5638 16.268 6.82944 -4.59324 -47.0104 -353.247
lowerback 5.40021 -2.15064 0.200815
upperback 3.66541 -2.89766 -1.4587
thorax 0.659101 -1.45052 -1.47156
lowerneck 8.08477 -3.78552 -0.0326147
upperneck -8.36198 -4.57841 5.59578
head -4.06773 -2.54892 2.16669
rclavicle 4.76089e-014 1.39149e-015
rhumerus -38.3519 18.2076 -99.6429
rradius 66.8116
rwrist 13.5546
rhand -52.3983 11.0518
rfingers 7.12502
rthumb -24.8893 -17.3478
lclavicle 4.76089e-014 1.39149e-015
lhumerus -30.4746 -11.3554 91.9543
lradius 60.5646
lwrist 4.23663
lhand -38.0907 -1.3914
lfingers 7.12502
lthumb -11.1268 28.2936
rfemur -27.1493 -4.63171 34.5043
rtibia 32.1593
rfoot -17.2246 -22.164
rtoes 10.6725
lfemur -4.88106 16.3512 -13.5031
ltibia 62.9632
lfoot 20.282 -4.10001
ltoes -10.5805
1341
root -12.6842 16.2544 6.93337 -4.37927 -47.7853 -353.86
lowerback 5.56522 -2.07007 0.646396
upperback 3.72849 -2.7723 -1.28954
thorax 0.623579 -1.38245 -1.54823
lowerneck 8.1354 -3.80449 -0.00169284
upperneck -8.4773 -4.58848 5.67533
head -4.11806 -2.56155 2.19465
rclavicle 1.70458e-014 -6.95746e-015
rhumerus -38.0451 18.3976 -99.4721
rradius 66.8923
rwrist 13.863
rhand -52.3615 11.0777
rfingers 7.12502
rthumb -24.854 -17.3268
lclavicle 1.70458e-014 -6.95746e-015
lhumerus -30.565 -11.1651 92.0302
lradius 60.3808
lwrist 4.11287
lhand -37.7856 -0.870519
lfingers 7.12502
lthumb -10.8325 28.8301
rfemur -26.3752 -4.27732 35.0911
rtibia 32.5073
rfoot -17.6304 -21.9753
rtoes 10.2677
lfemur -6.50552 15.6412 -12.8187
ltibia 65.0184
lfoot 18.8625 -4.36554
ltoes -10.8882
1342
root -12.8029 16.2393 7.03507 -4.23107 -48.5812 -354.337
lowerback 5.70741 -1.97931 0.982061
upperback 3.78879 -2.63736 -1.14636
thorax 0.603183 -1.31118 -1.59207
lowerneck 8.1841 -3.82005 0.0273225
upperneck -8.5737 -4.59435 5.75923
head -4.16134 -2.57205 2.2236
rclavicle 1.01728e-013 -2.18663e-014
rhumerus -37.6856 18.5946 -99.287
rradius 66.9341
rwrist 14.2342
rhand -52.3516 11.0932
rfingers 7.12502
rthumb -24.8445 -17.3126
lclavicle 1.01728e-013 -2.18663e-014
lhumerus -30.6339 -10.9992 92.0982
lradius 60.2207
lwrist 4.01539
lhand -37.4544 -0.229329
lfingers 7.12502
lthumb -10.513 29.4878
rfemur -25.6726 -3.8911 35.5731
rtibia 32.928
rfoot -18.0461 -21.7829
rtoes 9.95
lfemur -8.15967 14.8325 -12.3094
ltibia 66.8504
lfoot 17.2541 -4.26174
ltoes -11.1232
1343
root -12.9201 16.222 7.13398 -4.14926 -49.3875 -354.67
lowerback 5.81557 -1.88339 1.19726
upperback 3.84715 -2.5007 -1.02611
thorax 0.604641 -1.24073 -1.59384
lowerneck 8.22541 -3.8299 0.0573586
upperneck -8.64976 -4.59359 5.83835
head -4.19626 -2.57874 2.24948
rclavicle 8.24956e-015 -2.18663e-015
rhumerus -37.2707 18.8063 -99.0908
rradius 66.9393
rwrist 14.6295
rhand -52.3638 11.1015
rfingers 7.12502
rthumb -24.8562 -17.3027
lclavicle 8.24956e-015 -2.18663e-015
lhumerus -30.682 -10.8536 92.1574
lradius 60.0882
lwrist 3.95703
lhand -37.0915 0.487907
lfingers 7.12502
lthumb -10.1629 30.2224
rfemur -25.0583 -3.4781 35.9503
rtibia 33.4324
rfoot -18.5052 -21.5707
rtoes 9.78613
lfemur -9.85345 13.89 -11.9684
ltibia 68.469
lfoot 15.5788 -3.72378
ltoes -10.9165
1344
root -13.0355 16.2024 7.22952 -4.11174 -50.1997 -354.883
lowerback 5.89189 -1.7868 1.31149
upperback 3.89758 -2.3678 -0.925654
thorax 0.618962 -1.1736 -1.56043
lowerneck 8.25854 -3.83061 0.087577
upperneck -8.70194 -4.58174 5.91435
head -4.22146 -2.57941 2.27254
rclavicle 9.19876e-014 -1.66979e-014
rhumerus -36.8094 19.0358 -98.8974
rradius 66.9073
rwrist 15.0228
rhand -52.401 11.0942
rfingers 7.12502
rthumb -24.8918 -17.3051
lclavicle 9.19876e-014 -1.66979e-014
lhumerus -30.715 -10.7243 92.1991
lradius 59.9784
lwrist 3.94137
lhand -36.6974 1.21248
lfingers 7.12502
lthumb -9.78271 30.9652
rfemur -24.5405 -3.02638 36.2431
rtibia 34.0165
rfoot -19.0293 -21.3418
rtoes 9.77006
lfemur -11.597 12.844 -11.7528
ltibia 69.8831
lfoot 13.8309 -2.95114
ltoes -10.3262
1345
root -13.1486 16.1804 7.32171 -4.09002 -51.0358 -355
lowerback 5.92858 -1.68328 1.35231
upperback 3.93691 -2.22932 -0.840682
thorax 0.646115 -1.10466 -1.50333
lowerneck 8.27187 -3.82499 0.107569
upperneck -8.72336 -4.56404 5.99182
head -4.23156 -2.57621 2.29584
rclavicle -3.82164e-014 1.90833e-014
rhumerus -36.3004 19.2778 -98.7052
rradius 66.8429
rwrist 15.3753
rhand -52.4475 11.0668
rfingers 7.12502
rthumb -24.9364 -17.3263
lclavicle -3.82164e-014 1.90833e-014
lhumerus -30.7393 -10.6272 92.2313
lradius 59.9034
lwrist 4.00545
lhand -36.2999 1.9196
lfingers 7.12502
lthumb -9.39919 31.69
rfemur -24.1218 -2.52584 36.4775
rtibia 34.6612
rfoot -19.5974 -21.1
rtoes 9.92588
lfemur -13.3997 11.741 -11.6253
ltibia 71.1014
lfoot 11.9639 -2.10371
ltoes -9.52941
